<svg width="163" height="122" viewBox="0 0 163 122" fill="none" xmlns="http://www.w3.org/2000/svg">
<g clip-path="url(#clip0_4063_176124)">
<path d="M94.4707 13.5848H58.3338C56.3704 13.5856 54.4714 14.2851 52.9771 15.5579C51.4827 16.8308 50.4907 18.5937 50.1785 20.5311L40.2109 118.151" stroke="#959CA5" stroke-width="1.5" stroke-miterlimit="10" stroke-linecap="round"/>
<path d="M149.094 15.2509V55.0723" stroke="#959CA5" stroke-width="0.75" stroke-miterlimit="10" stroke-linecap="round"/>
<path d="M148.48 60.0266C150.762 60.0266 152.612 58.1776 152.612 55.8968C152.612 53.616 150.762 51.7671 148.48 51.7671C146.198 51.7671 144.348 53.616 144.348 55.8968C144.348 58.1776 146.198 60.0266 148.48 60.0266Z" fill="#FBBC05"/>
<path d="M58.625 32.3498H149.828L144.119 9.05649C143.464 6.53979 142.016 4.30054 139.99 2.66966C137.963 1.03877 135.465 0.10277 132.865 0H75.8326C73.2311 0.100865 70.7312 1.03597 68.7028 2.667C66.6743 4.29804 65.225 6.53835 64.5693 9.05649L58.625 32.3498Z" fill="#F29900"/>
<path d="M74.6094 0H141.963C146.711 0 152.094 4.26561 154.042 9.68139L162.188 32.2592H94.7891L86.6792 9.68139C84.74 4.26561 79.3576 0 74.6094 0Z" fill="#FBBC05"/>
<path d="M81.7415 122H0.632812C0.632812 122 18.7556 109.104 41.1917 109.104C63.6278 109.104 81.7415 122 81.7415 122Z" fill="#CDD0D5"/>
</g>
<defs>
<clipPath id="clip0_4063_176124">
<rect width="162" height="122" fill="white" transform="translate(0.632812)"/>
</clipPath>
</defs>
</svg>
