<svg width="197" height="386" viewBox="0 0 197 386" fill="none" xmlns="http://www.w3.org/2000/svg">
<path d="M81.0892 213.029C79.9228 210.833 78.2165 208.992 76.1419 207.691C76.0591 207.646 75.9682 207.619 75.8749 207.612C75.7815 207.604 75.688 207.617 75.5995 207.648C75.511 207.679 75.4298 207.729 75.3607 207.795C75.2917 207.86 75.2364 207.939 75.1982 208.027C74.5342 209.672 74.2114 211.441 74.2506 213.222C74.2899 215.003 74.6901 216.756 75.4259 218.367C76.1679 220.023 77.261 221.486 78.6243 222.648C79.9875 223.81 81.5862 224.642 83.3026 225.082C83.4402 225.109 83.5829 225.088 83.7071 225.021C83.8312 224.953 83.9295 224.845 83.986 224.713C84.4514 222.47 84.2702 220.136 83.4651 217.998C82.9055 216.234 82.1056 214.561 81.0892 213.029Z" fill="#34A853"/>
<path d="M126.394 63.6224C131.897 58.7567 135.537 52.0931 136.68 44.7927C136.695 44.6924 136.688 44.5899 136.658 44.4927C136.629 44.3956 136.579 44.3061 136.512 44.2312C136.444 44.1562 136.361 44.0975 136.267 44.0594C136.174 44.0213 136.074 44.0048 135.974 44.0111C128.873 44.3048 122.087 47.052 116.748 51.7943C114.004 54.2583 111.726 57.2067 110.026 60.4953C109.085 62.2627 105.555 68.5846 107.102 70.6919C108.648 72.7991 115 70.1141 116.815 69.4343C120.331 68.1011 123.577 66.1318 126.394 63.6224Z" fill="#34A853"/>
<path d="M79.3857 120.093C77.3359 117.557 75.6061 114.752 74.239 111.747C71.8024 105.583 71.1339 98.8015 72.3168 92.2411C72.3714 91.9877 72.5179 91.7671 72.7248 91.6259C72.9317 91.4847 73.183 91.4344 73.4246 91.4857C76.5471 92.2664 79.5359 93.5523 82.2849 95.2976C84.5481 97.0094 86.4001 99.2558 87.6924 101.857C90.9499 107.936 93.9143 123.184 94.2074 130.189C94.4029 133.624 93.0345 133.246 93.1322 136.714C93.2299 140.183 89.0605 133.28 87.5946 131.288L79.3857 120.093Z" fill="#34A853"/>
<path d="M85.0467 67.043C80.961 56.8448 80.6474 45.4511 84.1657 35.0296C84.2782 34.6839 84.5099 34.393 84.8169 34.2127C85.1239 34.0324 85.4845 33.9755 85.8297 34.0525C89.4005 35.0696 92.4447 37.4883 94.3125 40.7921C96.3536 44.4296 97.7564 48.4111 98.4561 52.5528C100.635 62.9269 101.729 73.5127 101.719 84.1281C101.719 85.8467 101.719 96.4953 100.218 96.4616C98.7172 96.4279 95.2262 90.3285 94.5737 88.9469C93.5949 86.7902 91.5065 82.4768 90.5604 80.3202C88.146 74.5914 86.9717 72.0978 85.0467 67.043Z" fill="#34A853"/>
<path d="M98.2906 34.6019C97.3439 28.4558 98.5329 22.1618 101.647 16.8357C101.712 16.7425 101.798 16.6667 101.897 16.6144C101.996 16.5621 102.106 16.535 102.218 16.535C102.329 16.535 102.438 16.5621 102.538 16.6144C102.637 16.6667 102.722 16.7425 102.788 16.8357C103.627 18.0155 105.07 20.0628 105.238 20.3057C106.165 21.8638 106.962 23.5007 107.621 25.1984C109.048 28.6494 110.171 32.2262 110.977 35.8858C111.882 39.9784 111.951 44.2214 111.178 48.343C110.91 49.6616 111.179 54.7971 109.232 53.8949C106.95 51.5941 104.913 49.0464 103.157 46.2957C100.636 42.8671 98.9648 38.8522 98.2906 34.6019Z" fill="#34A853"/>
<path d="M128.935 23.6991C132.586 20.6724 134.909 16.3662 135.418 11.6834C135.621 8.14553 134.405 4.5409 134.912 1.06975C134.922 0.969382 134.91 0.868038 134.876 0.77274C134.843 0.677442 134.789 0.590565 134.718 0.517691C134.648 0.444816 134.562 0.387831 134.467 0.350646C134.373 0.313461 134.271 0.296888 134.169 0.302162C131.152 0.26492 128.15 0.727376 125.288 1.67051C122.684 2.80081 120.388 4.52411 118.586 6.69937C116.784 8.87463 115.529 11.4402 114.922 14.1867C114.242 16.9934 114.048 19.8936 114.348 22.7644C114.55 24.7002 114.618 28.6053 116.407 29.8402C119.413 31.9763 126.808 25.6015 128.935 23.6991Z" fill="#34A853"/>
<path d="M122.429 101.748C127.657 95.0666 130.479 86.8286 130.441 78.3579C130.438 78.2629 130.414 78.1698 130.371 78.085C130.328 78.0002 130.267 77.9259 130.192 77.8674C130.117 77.8088 130.03 77.7673 129.937 77.746C129.844 77.7248 129.747 77.7241 129.654 77.7441C121.551 79.6127 114.199 83.8625 108.551 89.9423C102.904 96.0221 99.2211 103.651 97.9808 111.841C97.7753 113.137 95.7895 115.83 97.2619 116.444C99.4418 116.343 101.586 115.858 103.596 115.012C107.044 113.824 110.332 112.221 113.389 110.238C116.84 107.909 119.892 105.043 122.429 101.748Z" fill="#34A853"/>
<path d="M105.834 150.929C109.938 148.716 114.468 145.974 115.421 141.383C116.083 138.18 117.319 135.124 119.065 132.365C119.143 132.277 119.192 132.167 119.204 132.05C119.216 131.932 119.192 131.814 119.133 131.712C119.075 131.61 118.987 131.529 118.88 131.48C118.774 131.431 118.655 131.417 118.54 131.44C112.269 132.233 108.198 131.44 104.783 133.158C101.378 135.186 98.5504 138.064 96.5752 141.515C94.671 144.157 89.1884 153.605 90.7644 157.304C91.5851 159.286 103.273 152.283 105.834 150.929Z" fill="#34A853"/>
<path d="M77.239 162.132C75.0212 156.947 72.8352 148.727 75.4015 143.918C77.9362 143.918 81.358 147.329 82.657 149.682C84.4035 152.494 85.5901 155.664 86.1421 158.994C86.6173 161.313 89.3102 173.865 87.1557 175.059C85.0013 176.252 77.9994 163.871 77.239 162.132Z" fill="#34A853"/>
<path d="M107.954 169.609C107.97 169.506 107.958 169.401 107.922 169.303C107.885 169.205 107.824 169.119 107.745 169.05C107.666 168.981 107.57 168.934 107.468 168.911C107.365 168.888 107.258 168.891 107.157 168.919C101.742 170.946 97.0979 174.582 93.8636 179.326C90.5674 183.937 87.8136 188.905 85.6553 194.132C84.0933 200.303 93.5315 191.932 95.3593 190.291C98.9465 187.165 102.078 183.563 104.664 179.589C106.429 176.515 107.549 173.12 107.954 169.609Z" fill="#34A853"/>
<path d="M144.227 167.691C146.08 162.257 149.541 157.529 154.143 154.145C154.295 154.035 154.471 153.96 154.656 153.928C154.841 153.895 155.03 153.905 155.211 153.956C155.392 154.007 155.559 154.099 155.7 154.224C155.841 154.349 155.953 154.504 156.026 154.678C158.31 160.136 158.534 166.25 156.655 171.862C155.035 176.6 150.97 182.907 146.045 184.775C144.161 185.476 144.227 185.242 143.698 183.14C142.486 178.029 142.715 172.678 144.359 167.691H144.227Z" fill="#34A853"/>
<path d="M44.2261 202.66C42.3731 197.225 38.9119 192.497 34.3106 189.113C34.1577 189.003 33.9823 188.929 33.7973 188.896C33.6124 188.863 33.4229 188.873 33.2422 188.924C33.0614 188.976 32.8943 189.067 32.7532 189.192C32.6121 189.317 32.5006 189.472 32.4268 189.646C30.1429 195.104 29.9193 201.218 31.7986 206.83C33.4181 211.569 37.4834 217.875 42.4081 219.743C44.2921 220.444 44.2263 220.211 44.7551 218.108C45.967 212.997 45.7377 207.646 44.0938 202.66H44.2261Z" fill="#34A853"/>
<path d="M126.214 170.144C127.589 170.144 129.141 172.556 130.587 176.657C131.591 179.879 131.915 183.267 131.54 186.616C130.728 192.375 128.461 197.847 124.944 202.536C122.268 206.34 119.395 210.009 116.338 213.529C114.574 215.665 114.116 206.637 114.222 204.776C114.502 197.114 116.299 189.578 119.512 182.584C119.971 181.55 124.168 170.144 126.214 170.144Z" fill="#34A853"/>
<path d="M62.2354 205.112C60.8599 205.112 59.308 207.524 57.8619 211.625C56.8578 214.847 56.5337 218.235 56.9096 221.584C57.7211 227.343 59.9878 232.815 63.5051 237.504C66.1815 241.308 69.054 244.977 72.1113 248.497C73.8748 250.633 74.3332 241.605 74.2274 239.744C73.9469 232.082 72.1503 224.546 68.9369 217.552C68.4784 216.518 64.2811 205.112 62.2354 205.112Z" fill="#34A853"/>
<path d="M98.8417 234.976C97.9448 227.909 97.7395 220.766 98.2286 213.656C98.9442 208.883 101.351 204.563 104.975 201.55C105.081 201.459 105.208 201.399 105.343 201.376C105.479 201.353 105.618 201.368 105.746 201.419C105.874 201.471 105.987 201.556 106.072 201.668C106.158 201.779 106.214 201.913 106.234 202.054C107.492 207.639 108.067 213.368 107.945 219.104C107.659 223.16 106.333 227.063 104.103 230.403C100.746 236.019 99.3905 240.693 98.8417 234.976Z" fill="#34A853"/>
<path d="M188.251 171.728C191.219 169.93 193.924 167.742 196.291 165.224C196.433 165.075 196.536 164.894 196.59 164.697C196.643 164.499 196.647 164.292 196.6 164.093C196.553 163.894 196.456 163.709 196.319 163.556C196.182 163.402 196.008 163.284 195.814 163.213C189.544 160.958 182.693 160.805 176.326 162.777C170.156 164.633 164.779 168.439 161.029 173.605C158.507 177.293 164.436 176.253 166.752 176.253C170.173 176.251 173.589 176.005 176.973 175.516C180.935 174.94 184.757 173.656 188.251 171.728Z" fill="#34A853"/>
<path d="M7.68 206.029C5.50685 204.713 3.52638 203.111 1.7933 201.268C1.68913 201.159 1.61417 201.026 1.57468 200.882C1.53519 200.737 1.53251 200.585 1.56707 200.439C1.60162 200.294 1.67218 200.159 1.7726 200.046C1.87301 199.934 2.00009 199.847 2.14255 199.795C6.73283 198.145 11.7486 198.032 16.4103 199.476C20.9281 200.835 24.8648 203.621 27.6104 207.404C29.4562 210.104 25.1159 209.343 23.4197 209.343C20.9153 209.341 18.4144 209.161 15.9365 208.803C13.0357 208.381 10.2375 207.441 7.68 206.029Z" fill="#34A853"/>
<path d="M187.725 182.706C187.791 182.653 187.841 182.583 187.868 182.502C187.895 182.422 187.898 182.336 187.876 182.254C187.855 182.172 187.81 182.099 187.747 182.042C187.684 181.985 187.606 181.947 187.522 181.933C184.284 181.029 180.966 180.433 177.614 180.154C172.838 180.038 168.064 180.443 163.377 181.363C157.143 182.254 151.085 184.1 145.42 186.836C143.662 187.608 136.222 191.033 136.222 193.551C136.222 196.069 127.701 196.908 145.556 196.035C153.054 196.109 160.535 195.297 167.841 193.618C175.172 191.419 181.949 187.699 187.725 182.706Z" fill="#34A853"/>
<path d="M0.728253 217.674C0.661667 217.621 0.611915 217.551 0.585012 217.47C0.558108 217.39 0.555271 217.304 0.576756 217.222C0.59824 217.141 0.643041 217.067 0.705962 217.01C0.768882 216.953 0.84694 216.915 0.930937 216.902C4.16926 215.997 7.48718 215.402 10.8393 215.122C15.6152 215.006 20.3893 215.411 25.076 216.331C31.3106 217.222 37.3684 219.068 43.0327 221.804C44.7912 222.576 52.2307 226.001 52.2307 228.519C52.2307 231.037 60.7524 231.876 42.8973 231.003C35.3988 231.077 27.9181 230.265 20.6124 228.586C13.2812 226.387 6.50378 222.668 0.728253 217.674Z" fill="#34A853"/>
<path d="M140.162 219.979C150.402 218.808 161.05 215.089 167.774 207.167C167.834 207.093 167.876 207.006 167.895 206.912C167.913 206.818 167.909 206.721 167.883 206.629C167.856 206.538 167.806 206.454 167.74 206.386C167.674 206.317 167.592 206.267 167.501 206.238C160.983 204.479 154.245 203.69 147.5 203.895C140.149 204.323 132.939 206.121 126.237 209.199C123.745 210.37 110.741 217.568 111.765 220.151C112.482 221.873 123.062 221.219 125.11 221.254C130.147 221.104 135.171 220.679 140.162 219.979Z" fill="#34A853"/>
<path d="M48.2871 254.947C38.0477 253.776 27.3989 250.056 20.675 242.135C20.6148 242.061 20.5735 241.973 20.5546 241.879C20.5358 241.785 20.5398 241.688 20.5667 241.597C20.5937 241.505 20.6428 241.421 20.7092 241.353C20.7756 241.284 20.8575 241.234 20.9479 241.205C27.4665 239.447 34.2044 238.657 40.9488 238.863C48.3006 239.29 55.5102 241.088 62.2124 244.167C64.704 245.338 77.708 252.536 76.684 255.119C75.9673 256.841 65.3869 256.186 63.339 256.221C58.3026 256.071 53.2778 255.646 48.2871 254.947Z" fill="#34A853"/>
<path d="M120.7 242.1C129.365 239.31 137.027 234.254 142.809 227.51C142.872 227.434 142.913 227.343 142.926 227.246C142.938 227.149 142.922 227.051 142.879 226.963C142.836 226.875 142.768 226.799 142.683 226.746C142.598 226.692 142.498 226.662 142.396 226.659C138.291 226.171 134.134 226.248 130.052 226.888C125.207 227.724 120.462 229.018 115.886 230.748C109.01 233.529 95.7717 240.202 94.2244 247.53C102.511 247.988 112.895 244.717 120.7 242.1Z" fill="#34A853"/>
<path d="M84.1932 295.03C78.0861 202.9 95.9067 101.963 121.703 15.2867" stroke="#137333" stroke-width="0.44" stroke-linecap="round" stroke-linejoin="round"/>
<path d="M80.4895 283.789C87.223 258.578 99.1592 235.087 115.516 214.856C131.873 194.626 152.281 178.112 175.402 166.397" stroke="#137333" stroke-width="0.44" stroke-linecap="round" stroke-linejoin="round"/>
<path d="M107.964 318.758C101.23 293.546 89.294 270.055 72.9373 249.825C56.5806 229.594 36.1725 213.08 13.0508 201.365" stroke="#137333" stroke-width="0.44" stroke-linecap="round" stroke-linejoin="round"/>
<path d="M131.888 256.483L120.381 373.978H34.3739L23.4648 256.483H131.888Z" fill="#FFE086" stroke="#FFE086" stroke-width="0.77" stroke-linecap="round" stroke-linejoin="round"/>
<path d="M34.3789 374.265H120.547" stroke="#FBBC04" stroke-width="0.77" stroke-linecap="round" stroke-linejoin="round"/>
<path d="M23.7461 263.062H131.985" stroke="#FBBC04" stroke-width="0.77" stroke-linecap="round" stroke-linejoin="round"/>
<path d="M23.6328 259.197H131.987" stroke="#FBBC04" stroke-width="0.77" stroke-linecap="round" stroke-linejoin="round"/>
<path d="M140.108 247.673H11.9375V256.483H140.108V247.673Z" fill="#FFE086" stroke="#FFE086" stroke-width="0.77" stroke-linecap="round" stroke-linejoin="round"/>
<path d="M105.864 307.42C104.643 304.423 104.014 301.21 104.012 297.966C103.994 296.355 104.315 294.758 104.954 293.283C105.593 291.809 106.535 290.49 107.716 289.416C109.043 288.46 110.564 287.818 112.166 287.538C113.769 287.258 115.413 287.346 116.977 287.796C120.085 288.758 122.928 290.448 125.275 292.73C132.434 299.957 137.431 309.099 139.686 319.096C140.76 322.58 141.273 326.218 141.205 329.869C141.119 333.537 139.693 337.042 137.204 339.699C135.937 340.992 134.329 341.885 132.575 342.273C130.821 342.66 128.994 342.525 127.313 341.884C123.609 340.302 124.127 337.326 122.645 334.351C120.92 331.762 118.933 329.364 116.718 327.194C112.008 321.287 108.336 314.597 105.864 307.42Z" fill="#99DBB1"/>
<path d="M146.613 302.592C147.677 301.616 149.165 300.676 150.406 301.428C150.847 301.797 151.2 302.272 151.434 302.814C151.669 303.357 151.778 303.95 151.752 304.546C152.39 308.903 152.39 313.339 151.752 317.696C151.438 319.878 150.703 321.968 149.593 323.836C148.483 325.704 147.023 327.31 145.302 328.554C143.977 329.427 142.471 329.945 140.915 330.063C139.359 330.181 137.799 329.895 136.371 329.23C133.252 327.239 134.386 324.797 135.272 321.303C137.205 314.005 141.155 307.488 146.613 302.592Z" fill="#CEEAD6"/>
<path d="M130.187 302.534L134.32 297.022" stroke="#34A853" stroke-width="0.44" stroke-linecap="round" stroke-linejoin="round"/>
<path d="M112.277 290.133L109.522 286" stroke="#34A853" stroke-width="0.44" stroke-linecap="round" stroke-linejoin="round"/>
<path d="M112.277 314.933H105.388" stroke="#34A853" stroke-width="0.44" stroke-linecap="round" stroke-linejoin="round"/>
<path d="M108.145 299.778L102.633 298.4" stroke="#34A853" stroke-width="0.44" stroke-linecap="round" stroke-linejoin="round"/>
<path d="M117.787 305.288L120.543 299.777" stroke="#34A853" stroke-width="0.44" stroke-linecap="round" stroke-linejoin="round"/>
<path d="M127.434 319.067V313.556" stroke="#34A853" stroke-width="0.44" stroke-linecap="round" stroke-linejoin="round"/>
<path d="M149.478 303.911L150.855 299.777" stroke="#34A853" stroke-width="0.44" stroke-linecap="round" stroke-linejoin="round"/>
<path d="M143.965 308.045L139.832 305.289" stroke="#34A853" stroke-width="0.44" stroke-linecap="round" stroke-linejoin="round"/>
<path d="M142.586 320.445L139.83 316.312" stroke="#34A853" stroke-width="0.44" stroke-linecap="round" stroke-linejoin="round"/>
<path d="M150.853 317.688H157.742" stroke="#34A853" stroke-width="0.44" stroke-linecap="round" stroke-linejoin="round"/>
<path d="M110.897 374.178H161.875V385.2H110.897V374.178Z" fill="#C5221F"/>
<path d="M152.916 324.577H118.52C115.403 324.577 112.413 325.815 110.209 328.018C108.005 330.22 106.766 333.208 106.766 336.324V382.444H164.633V336.324C164.633 333.215 163.4 330.233 161.203 328.031C159.007 325.829 156.027 324.587 152.916 324.577Z" fill="#EA4335"/>
</svg>
