<svg width="274" height="407" viewBox="0 0 274 407" fill="none" xmlns="http://www.w3.org/2000/svg">
<path d="M134.741 176.393C144.88 135.21 154.666 104.936 150.681 92.341C144.802 74.1274 126.51 114.566 126.51 114.566L108.479 171.872C108.479 171.872 128.234 202.785 134.741 176.393Z" fill="#8D523A"/>
<path d="M62.6977 170.369C62.6977 170.369 37.6508 181.71 53.5517 185.46C65.3108 188.217 91.5206 191.993 120.265 189.38C143.195 187.381 124.067 170.866 124.067 170.866L62.6977 170.369Z" fill="#8D523A"/>
<path d="M94.9824 183.226C94.9824 183.226 49.736 192.294 40.3548 191.706C39.7799 191.706 40.4463 190.399 39.9498 190.399C39.4533 190.399 38.0683 190.282 37.7547 190.203C37.0753 190.033 37.7547 188.609 37.2321 188.322C36.5135 187.877 34.8542 188.465 34.7497 187.681C34.619 186.675 35.7035 186.061 36.1477 185.068C36.3959 184.533 35.6251 183.892 36.1477 183.265C36.5531 182.747 36.9894 182.254 37.4543 181.789C42.1056 177.255 51.2646 172.708 52.9893 171.846C55.3934 170.644 65.2188 169.991 72.6662 170.539C78.5223 170.977 84.3527 171.709 90.135 172.734L94.9824 183.226Z" fill="#8D523A"/>
<mask id="mask0_4063_176139" style="mask-type:alpha" maskUnits="userSpaceOnUse" x="34" y="170" width="61" height="22">
<path d="M94.9824 183.226C94.9824 183.226 49.736 192.294 40.3548 191.706C39.7799 191.706 40.4463 190.399 39.9498 190.399C39.4533 190.399 38.0683 190.282 37.7547 190.203C37.0753 190.033 37.7547 188.609 37.2321 188.322C36.5135 187.877 34.8542 188.465 34.7497 187.681C34.619 186.675 35.7035 186.061 36.1477 185.068C36.3959 184.533 35.6251 183.892 36.1477 183.265C36.5531 182.747 36.9894 182.254 37.4543 181.789C42.1056 177.255 51.2646 172.708 52.9893 171.846C55.3934 170.644 65.2188 169.991 72.6662 170.539C78.5223 170.977 84.3527 171.709 90.135 172.734L94.9824 183.226Z" fill="#8D523A"/>
</mask>
<g mask="url(#mask0_4063_176139)">
<path opacity="0.5" d="M50.5723 182.638C42.158 185.042 34.8935 188.648 32.5416 191.065" stroke="#202124" stroke-width="0.34" stroke-linecap="round" stroke-linejoin="round"/>
<path opacity="0.5" d="M50.5723 179.032C42.158 181.436 34.8935 185.042 32.5416 187.447" stroke="#202124" stroke-width="0.34" stroke-linecap="round" stroke-linejoin="round"/>
<path opacity="0.5" d="M50.5723 186.245C42.158 188.649 34.8935 192.268 32.5416 194.672" stroke="#202124" stroke-width="0.34" stroke-linecap="round" stroke-linejoin="round"/>
</g>
<path d="M115.116 193.691C121.139 193.691 128.365 189.601 131.278 186.243C145.899 169.258 150.197 109.613 150.367 96.09C150.472 87.6626 149.27 82.8544 140.398 89.4787C133.944 94.2869 127.633 108.11 127.633 108.11C122.681 118.667 106.728 167.886 106.728 167.886C106.728 167.886 89.7423 168.317 89.7423 168.291L82.7391 192.959C82.7391 192.959 112.829 193.691 115.116 193.691Z" fill="#FBBC05"/>
<path d="M204.656 45.3171C204.656 45.3171 211.189 40.0908 218.623 47.9302" stroke="#202124" stroke-width="0.56" stroke-miterlimit="10" stroke-linecap="round"/>
<path d="M186.898 35.7143C188.452 34.3853 190.353 33.5286 192.378 33.2454C194.403 32.9622 196.467 33.2643 198.325 34.1161C200.184 34.9678 201.76 36.3336 202.868 38.0522C203.975 39.7708 204.568 41.7704 204.576 43.8149C207.158 44.2288 209.499 45.5764 211.154 47.6019C212.808 49.6275 213.662 52.19 213.552 54.8032C214.963 54.9642 216.327 55.4053 217.565 56.1006C218.802 56.7959 219.889 57.7314 220.76 58.8523C221.632 59.9732 222.27 61.2569 222.639 62.6279C223.008 63.999 223.099 65.4299 222.907 66.8366C225.847 66.915 235.123 71.3705 237.188 73.7746C241.029 78.2823 239.435 89.3227 234.927 93.1771C232.915 94.8887 228.329 95.7902 225.886 95.7902C225.494 98.2074 224.279 93.0334 222.267 94.745C217.759 98.6647 210.991 105.524 207.15 101.03C205.085 98.6255 201.1 88.1076 201.479 85.194C200.058 85.1657 198.657 84.8538 197.358 84.2766C196.059 83.6994 194.888 82.8686 193.914 81.8329C192.941 80.7972 192.184 79.5775 191.688 78.2453C191.192 76.9131 190.967 75.4953 191.027 74.0751C188.43 73.7715 186.035 72.5269 184.294 70.5767C182.554 68.6265 181.588 66.1059 181.58 63.4918C180.394 58.7636 180.252 53.8336 181.166 49.0452C182.08 44.2568 184.027 39.7253 186.872 35.7665L186.898 35.7143Z" fill="black"/>
<path d="M155.255 10.1313C155.255 10.1313 154.301 17.2652 156.561 17.7878C158.822 18.3104 152.001 17.6963 150.238 13.6068" stroke="#202124" stroke-width="0.56" stroke-miterlimit="10" stroke-linecap="round"/>
<path d="M174.683 94.3005L202.029 91.9356L196.62 56.9718L171.403 59.3367L174.683 94.3005Z" fill="#8E523A"/>
<mask id="mask1_4063_176139" style="mask-type:alpha" maskUnits="userSpaceOnUse" x="171" y="56" width="32" height="39">
<path d="M174.683 94.3005L202.029 91.9356L196.62 56.9718L171.403 59.3367L174.683 94.3005Z" fill="#8E523A"/>
</mask>
<g mask="url(#mask1_4063_176139)">
<path opacity="0.5" d="M146.997 84.7494L222.295 46.5192L212.391 27.7177L137.094 65.9479L146.997 84.7494Z" fill="black"/>
</g>
<path d="M208.824 30.3179C209.15 25.3268 208.066 12.6661 198.998 5.32319C194.843 1.95225 189.016 0.541143 180.863 0.00544942C174.411 -0.112398 168.069 1.68347 162.637 5.16641C160.821 6.62977 155.268 8.53731 156.548 28.2273C157.214 38.6798 156.731 41.293 156.195 49.3415C155.659 57.39 160.821 67.346 176.029 66.9018C191.237 66.4575 198.619 58.9709 202.696 51.9285C206.411 45.3077 208.511 37.9033 208.824 30.3179Z" fill="#8E523A"/>
<mask id="mask2_4063_176139" style="mask-type:alpha" maskUnits="userSpaceOnUse" x="156" y="0" width="53" height="67">
<path d="M208.824 30.3179C209.15 25.3268 208.066 12.6661 198.998 5.32319C194.843 1.95225 189.016 0.541143 180.863 0.00544942C174.411 -0.112398 168.069 1.68347 162.637 5.16641C160.821 6.62977 155.268 8.53731 156.548 28.2273C157.214 38.6798 156.731 41.293 156.195 49.3415C155.659 57.39 160.821 67.346 176.029 66.9018C191.237 66.4575 198.619 58.9709 202.696 51.9285C206.411 45.3077 208.511 37.9033 208.824 30.3179Z" fill="#8E523A"/>
</mask>
<g mask="url(#mask2_4063_176139)">
<path d="M145.612 29.8605C147.755 32.0033 155.255 16.429 168.843 14.9395C178.682 13.8681 189.356 18.1275 190.924 35.2436C191.643 43.083 191.316 49.6159 193.707 54.9728C197.98 64.6153 210.509 62.2112 210.509 62.2112C210.509 62.2112 256.422 1.49495 222.334 -13.9356C188.246 -29.3662 154.17 -33.8478 149.506 -18.7961C144.841 -3.74443 143.496 27.7308 145.612 29.8605Z" fill="black"/>
</g>
<path d="M172.068 52.3991C172.068 52.3991 165.718 55.0123 161.537 52.0986" stroke="#202124" stroke-width="0.56" stroke-miterlimit="10" stroke-linecap="round"/>
<path d="M166.426 37.0466C166.426 37.0466 159.788 41.2276 160.964 43.8146C162.14 46.4016 166.465 45.67 166.465 45.67" stroke="#202124" stroke-width="0.62" stroke-miterlimit="10" stroke-linecap="round"/>
<path d="M176.084 37.9733C175.478 37.9562 175.02 36.7962 175.06 35.3824C175.1 33.9686 175.623 32.8365 176.229 32.8536C176.835 32.8708 177.294 34.0307 177.254 35.4445C177.214 36.8582 176.69 37.9905 176.084 37.9733Z" fill="black"/>
<path d="M159.809 39.447C159.203 39.4299 158.744 38.2699 158.784 36.8561C158.824 35.4423 159.348 34.3102 159.954 34.3273C160.56 34.3445 161.018 35.5044 160.978 36.9181C160.938 38.3319 160.415 39.4641 159.809 39.447Z" fill="black"/>
<path d="M180.85 30.9449C179.282 29.9389 174.186 29.155 172.553 30.7098" stroke="#202124" stroke-width="0.56" stroke-miterlimit="10" stroke-linecap="round"/>
<path d="M165.314 30.9445C163.694 30.043 158.559 29.6379 157.018 31.2319" stroke="#202124" stroke-width="0.56" stroke-miterlimit="10" stroke-linecap="round"/>
<path d="M187.181 43.1641C186.259 40.9608 188.344 37.989 191.839 36.5264C195.334 35.0639 198.914 35.6644 199.836 37.8677C200.758 40.071 198.673 43.0428 195.178 44.5053C191.684 45.9679 188.103 45.3674 187.181 43.1641Z" fill="#8E523A"/>
<path d="M192.517 47.852C191.521 47.852 190.714 47.0447 190.714 46.0489C190.714 45.0531 191.521 44.2459 192.517 44.2459C193.513 44.2459 194.32 45.0531 194.32 46.0489C194.32 47.0447 193.513 47.852 192.517 47.852Z" fill="#E8EAED"/>
<path d="M196.279 38.9279C196.279 38.9279 192.02 42.129 193.078 41.0707C194.137 40.0124 195.221 42.129 195.221 42.129" stroke="#202124" stroke-width="0.62" stroke-miterlimit="10" stroke-linecap="round"/>
<path d="M169.771 197.52H226.489L238.418 105.603C238.418 105.603 234.145 92.7981 225.614 87.4673C219.316 84.7627 211.241 82.8551 203.167 78.3214C197.758 74.7152 175.925 74.4016 169.849 77.4198C163.774 80.438 156.457 82.241 147.977 86.2783C141.444 89.4402 169.771 197.52 169.771 197.52Z" fill="#8D523A"/>
<path d="M148.615 380.791L170.579 380.556L144.356 263.2C144.356 263.2 204.053 272.738 239.343 261.998C266.99 253.583 240.545 197.074 225.285 197.519C214.087 197.858 186.584 197.519 186.584 197.519C186.584 197.519 105.015 204.051 93.4258 225.845C81.8365 247.639 148.615 380.791 148.615 380.791Z" fill="#8D523A"/>
<path d="M169.77 197.52C169.613 197.075 87.6519 198.695 80.7662 239.852C72.7825 287.749 60.803 334.894 44.9532 380.792H66.5769L126.326 253.584C126.326 253.584 247.759 259.595 247.759 248.776C250.163 222.318 226.122 197.075 226.122 197.075" fill="#8D523A"/>
<path d="M174.5 406.427H165.498L163.695 398.313L154.692 406.427C154.692 406.427 122.29 407.315 122.29 406.427C122.29 398.313 136.662 389.31 138.491 387.52C140.32 385.73 149.231 380.308 149.231 380.308L170.58 380.557L174.5 406.427Z" fill="#1F60F3"/>
<path d="M70.209 406.178H61.1806L59.3776 398.077L50.3753 406.178C50.3753 406.178 17.9593 407.079 17.9593 406.178C17.9593 398.077 32.3316 389.074 34.1739 387.271C36.0161 385.468 44.9008 380.072 44.9008 380.072H66.6029L70.209 406.178Z" fill="#1F60F3"/>
<path d="M230.499 197.245C230.577 196.957 169.508 196.957 169.325 197.245C152.771 198.277 121.701 195.023 95.2951 212.218C79.4595 222.527 75.5006 253.244 71.9598 268.008C64.3555 299.653 61.9906 296.269 58.7242 312.014H169.704C161.786 289.057 164.19 283.034 157.762 268.087C157.501 267.46 247.158 267.407 247.158 267.407C271.46 242.517 237.567 201.321 230.499 197.245Z" fill="#E8EAED"/>
<mask id="mask3_4063_176139" style="mask-type:alpha" maskUnits="userSpaceOnUse" x="58" y="197" width="198" height="116">
<path d="M230.499 197.245C230.577 196.957 169.508 196.957 169.325 197.245C152.771 198.277 121.701 195.023 95.2951 212.218C79.4595 222.527 75.5006 253.244 71.9598 268.008C64.3555 299.653 61.9906 296.269 58.7242 312.014H169.704C161.786 289.057 164.19 283.034 157.762 268.087C157.501 267.46 247.158 267.407 247.158 267.407C271.46 242.517 237.567 201.321 230.499 197.245Z" fill="#E8EAED"/>
</mask>
<g mask="url(#mask3_4063_176139)">
<path d="M165.394 280.63C159.384 262.599 194.256 254.185 202.67 246.973C210.51 240.231 223.118 208.494 208.824 188.647" stroke="white" stroke-width="1.03" stroke-miterlimit="10"/>
<path d="M161.786 328.724C161.786 328.724 143.416 279.284 158.18 252.943C165.771 239.433 211.083 243.327 202.211 188.608" stroke="white" stroke-width="1.03" stroke-miterlimit="10"/>
<path d="M69.8173 328.123C69.8173 328.123 84.4901 241.889 96.6934 225.78C108.897 209.67 168.555 197.518 168.555 197.518" stroke="white" stroke-width="1.03" stroke-miterlimit="10"/>
<path d="M85.4447 328.123C85.4447 328.123 100.131 241.889 112.321 225.78C124.511 209.67 178.172 197.518 178.172 197.518" stroke="white" stroke-width="1.03" stroke-miterlimit="10"/>
<path d="M102.272 328.123C102.272 328.123 116.957 241.889 129.148 225.78C141.338 209.67 186.637 197.518 186.637 197.518" stroke="white" stroke-width="1.03" stroke-miterlimit="10"/>
<path d="M123.897 332.931C123.897 332.931 130.156 246.698 142.359 230.588C154.562 214.478 192.57 197.518 192.57 197.518" stroke="white" stroke-width="1.03" stroke-miterlimit="10"/>
<path d="M143.155 332.931C143.155 332.931 140.999 246.698 156.809 236.598C172.618 226.498 198.149 203.385 198.619 197.518" stroke="white" stroke-width="1.03" stroke-miterlimit="10"/>
<path d="M226.723 280.63C248.36 249.377 242.689 216.739 227.468 195.86" stroke="white" stroke-width="1.03" stroke-miterlimit="10"/>
<path d="M205.074 273.418C205.074 273.418 241.188 225.323 221.89 188.647" stroke="white" stroke-width="1.03" stroke-miterlimit="10"/>
</g>
<path d="M161.787 251.755L158.416 268.009C158.416 268.009 159.383 262.573 161.787 261.371" stroke="#80868B" stroke-width="0.92" stroke-linecap="round" stroke-linejoin="round"/>
<path d="M169.324 197.245C169.586 197.467 227.506 197.885 227.95 197.245C236.574 185.225 229.087 132.648 229.087 132.648C229.087 132.648 260.81 104.531 226.683 87.4673C220.385 84.7627 212.311 82.8551 204.223 78.3214C198.827 74.7152 176.981 74.4016 170.918 77.4198C164.386 80.7124 156.442 81.9406 146.094 86.5005C139.561 89.4141 142.096 125.371 141.939 123.241C147.962 158.597 152.77 183.814 169.324 197.245Z" fill="#FBBC05"/>
<path d="M226.684 132.649C228.7 127.813 229.434 122.538 228.813 117.336" stroke="#F29900" stroke-width="1.38" stroke-linecap="round" stroke-linejoin="round"/>
<path d="M144.959 139.965C143.617 133.237 143.213 126.356 143.757 119.517" stroke="#F29900" stroke-width="1.38" stroke-linecap="round" stroke-linejoin="round"/>
<path d="M228.787 196.605H169.769" stroke="#F29900" stroke-width="1.38" stroke-linecap="round" stroke-linejoin="round"/>
<path d="M230.316 189.248H220.7" stroke="#F29900" stroke-width="1.38" stroke-linecap="round" stroke-linejoin="round"/>
<path d="M231.518 165.207L214.689 167.611" stroke="#F29900" stroke-width="1.38" stroke-linecap="round" stroke-linejoin="round"/>
<path d="M101.893 189.732H185.305C185.359 189.73 185.413 189.739 185.464 189.759C185.514 189.778 185.56 189.808 185.599 189.846C185.638 189.884 185.669 189.929 185.691 189.979C185.712 190.029 185.723 190.083 185.723 190.137V190.346C185.719 191.282 185.373 192.184 184.75 192.883C184.126 193.581 183.268 194.026 182.339 194.135L105.251 194.605C103.383 194.605 101.867 192.11 101.867 190.346L101.893 189.732Z" fill="#80868B"/>
<path d="M135.094 194.266H46.6785C46.3304 194.265 45.9931 194.145 45.7223 193.927C45.4515 193.708 45.2633 193.404 45.189 193.064L38.1858 161.837L37.9505 160.87L37.1275 157.512L29.8237 127.147C29.7681 126.922 29.7646 126.687 29.8136 126.459C29.8625 126.232 29.9627 126.019 30.1062 125.837C30.2498 125.654 30.4332 125.507 30.6423 125.405C30.8514 125.304 31.0809 125.252 31.3132 125.253H122.25C122.604 125.252 122.947 125.374 123.222 125.598C123.496 125.822 123.683 126.134 123.753 126.481L136.596 192.45C136.636 192.671 136.628 192.898 136.571 193.115C136.514 193.332 136.41 193.534 136.267 193.707C136.124 193.88 135.945 194.02 135.742 194.116C135.54 194.213 135.318 194.264 135.094 194.266Z" fill="#9AA0A6"/>
<path d="M133.331 194.266L44.916 194.893C43.6094 194.266 42.9561 193.769 42.7993 193.064L35.7961 161.837L35.561 160.87L34.7509 157.512L27.3949 127.134C27.3393 126.909 27.3358 126.673 27.3848 126.446C27.4337 126.219 27.5338 126.006 27.6774 125.824C27.821 125.641 28.0043 125.493 28.2134 125.392C28.4226 125.291 28.6521 125.239 28.8844 125.24H119.861C120.215 125.236 120.56 125.357 120.834 125.582C121.109 125.806 121.296 126.12 121.363 126.468L134.207 192.437C134.351 193.403 133.671 193.665 133.331 194.266Z" fill="#D1D2D3"/>
<path opacity="0.6" d="M63.9766 124.756L34.3305 157.028L26.5172 124.756H63.9766Z" fill="white"/>
<path opacity="0.6" d="M69.7383 124.756L35.3755 161.353L35.1404 160.386L68.6016 124.756H69.7383Z" fill="white"/>
<path d="M268.69 172.146C256.761 131.459 240.403 99.4352 230.63 90.5505C216.375 77.7723 221.693 119.635 221.693 119.635L240.429 180.586C240.429 180.586 276.334 198.186 268.69 172.146Z" fill="#8D523A"/>
<path d="M192.555 167.965C192.555 167.965 173.519 181.71 189.38 185.46C201.14 188.217 227.271 189.693 256.094 188.243C283.44 186.936 259.896 169.729 259.896 169.729L192.555 167.965Z" fill="#8D523A"/>
<path d="M214.051 183.225C214.051 183.225 198.228 186.321 192.492 186.243C188.207 186.243 170.006 191.09 160.638 190.502C160.063 190.502 160.73 189.196 160.22 189.196C159.711 189.196 158.339 189.078 158.038 189C157.359 188.83 158.038 187.406 157.516 187.118C156.784 186.674 155.138 187.262 155.02 186.478C154.889 185.472 155.987 184.858 156.418 183.865C156.679 183.329 155.895 182.689 156.418 182.062C156.823 181.544 157.26 181.051 157.725 180.585C162.389 176.052 171.548 172.746 173.273 171.844C175.677 170.642 185.502 167.585 192.95 168.082C198.876 168.598 204.731 169.737 210.418 171.479L214.051 183.225Z" fill="#8D523A"/>
<mask id="mask4_4063_176139" style="mask-type:alpha" maskUnits="userSpaceOnUse" x="155" y="168" width="60" height="23">
<path d="M214.049 183.225C214.049 183.225 198.226 186.321 192.49 186.243C188.205 186.243 170.004 191.09 160.636 190.502C160.061 190.502 160.728 189.196 160.218 189.196C159.709 189.196 158.337 189.078 158.036 189C157.357 188.83 158.036 187.406 157.514 187.118C156.782 186.674 155.136 187.262 155.018 186.478C154.887 185.472 155.985 184.858 156.416 183.865C156.677 183.329 155.893 182.689 156.416 182.062C156.821 181.544 157.258 181.051 157.723 180.585C162.387 176.052 171.546 172.746 173.271 171.844C175.675 170.642 185.5 167.585 192.948 168.082C198.874 168.598 204.729 169.737 210.417 171.479L214.049 183.225Z" fill="#8D523A"/>
</mask>
<g mask="url(#mask4_4063_176139)">
<path opacity="0.5" d="M170.814 181.434C162.387 183.838 155.136 187.444 152.771 189.862" stroke="#202124" stroke-width="0.34" stroke-linecap="round" stroke-linejoin="round"/>
<path opacity="0.5" d="M170.814 177.828C162.387 180.232 155.136 183.839 152.771 186.243" stroke="#202124" stroke-width="0.34" stroke-linecap="round" stroke-linejoin="round"/>
<path opacity="0.5" d="M170.814 185.041C162.387 187.445 155.136 191.064 152.771 193.468" stroke="#202124" stroke-width="0.34" stroke-linecap="round" stroke-linejoin="round"/>
</g>
<path d="M250.986 192.49C257.01 192.49 265.437 189.602 268.351 186.244C276.464 176.85 273.812 170.017 269.174 157.278C265.829 148.132 240.547 99.6841 236.941 94.876C233.335 90.0678 223.013 84.0576 216.153 88.2647C209.294 92.4719 207.007 101.147 207.007 101.147C218.152 121.608 227.324 148.628 235.334 166.672C233.661 165.365 214.82 167.103 214.781 167.077L221.001 191.732C248.687 192.49 248.138 192.49 250.986 192.49Z" fill="#FBBC05"/>
<path d="M231.531 157.996C228.03 156.794 215.173 124.757 215.591 119.739" stroke="#F29900" stroke-width="1.38" stroke-linecap="round" stroke-linejoin="round"/>
<path d="M185.33 194.567H0.176267" stroke="#EFF0F2" stroke-width="1.38" stroke-miterlimit="10"/>
</svg>
